<svg width="160" height="160" viewBox="0 0 160 160" fill="none" xmlns="http://www.w3.org/2000/svg">
<path d="M125 44.5C125 69.0767 105.077 89 80.5 89C55.9233 89 36 69.0767 36 44.5C36 19.9233 55.9233 0 80.5 0C105.077 0 125 19.9233 125 44.5ZM53.8 44.5C53.8 59.246 65.754 71.2 80.5 71.2C95.246 71.2 107.2 59.246 107.2 44.5C107.2 29.754 95.246 17.8 80.5 17.8C65.754 17.8 53.8 29.754 53.8 44.5Z" fill="#FAF9FA"/>
<path d="M116.002 112.865C120.904 112.501 125.265 116.212 124.648 121.089C123.888 127.091 121.908 132.908 118.794 138.168C114.16 145.996 107.238 152.217 98.96 155.99C90.6824 159.764 81.4471 160.91 72.4981 159.275C63.5491 157.639 55.3165 153.299 48.9093 146.841C42.5021 140.383 38.2282 132.116 36.6633 123.155C35.0984 114.193 36.3178 104.967 40.1571 96.7196C43.9965 88.4722 50.2713 81.5996 58.1363 77.0277C63.421 73.9558 69.253 72.0217 75.2614 71.3094C80.1425 70.7307 83.8189 75.1208 83.4162 80.0196V80.0196C83.0136 84.9185 78.6209 88.4165 73.8599 89.6388C71.4971 90.2455 69.2151 91.1765 67.0818 92.4166C62.3628 95.1598 58.5979 99.2833 56.2943 104.232C53.9907 109.18 53.2591 114.716 54.198 120.093C55.1369 125.47 57.7012 130.43 61.5456 134.305C65.3899 138.18 70.3295 140.783 75.6988 141.765C81.0682 142.746 86.6095 142.059 91.576 139.794C96.5426 137.53 100.696 133.798 103.476 129.101C104.733 126.977 105.682 124.703 106.308 122.345C107.568 117.594 111.101 113.229 116.002 112.865V112.865Z" fill="#FAF9FA"/>
<path d="M29 9C29 4.02944 33.0294 0 38 0H80V0C80 9.94113 71.9411 18 62 18H38C33.0294 18 29 13.9706 29 9V9Z" fill="#FAF9FA"/>
<circle cx="118.5" cy="96.5" r="11.5" fill="#BE1033"/>
</svg>
