<svg id="logo" width="160" height="160" viewBox="0 0 160 160" fill="none" xmlns="http://www.w3.org/2000/svg">
<path d="M126 44.5C126 69.0767 106.077 89 81.5 89C56.9233 89 37 69.0767 37 44.5C37 19.9233 56.9233 0 81.5 0C106.077 0 126 19.9233 126 44.5ZM54.8 44.5C54.8 59.246 66.754 71.2 81.5 71.2C96.246 71.2 108.2 59.246 108.2 44.5C108.2 29.754 96.246 17.8 81.5 17.8C66.754 17.8 54.8 29.754 54.8 44.5Z" fill="#171717"/>
<path d="M117.002 112.865C121.904 112.501 126.265 116.212 125.648 121.089C124.888 127.091 122.908 132.908 119.794 138.168C115.16 145.996 108.238 152.217 99.96 155.99C91.6824 159.764 82.4471 160.91 73.4981 159.275C64.5491 157.639 56.3165 153.299 49.9093 146.841C43.5021 140.383 39.2282 132.116 37.6633 123.155C36.0984 114.193 37.3178 104.967 41.1571 96.7196C44.9965 88.4722 51.2713 81.5996 59.1363 77.0277C64.421 73.9558 70.253 72.0217 76.2614 71.3094C81.1425 70.7307 84.8189 75.1208 84.4162 80.0196V80.0196C84.0136 84.9185 79.6209 88.4165 74.8599 89.6388C72.4971 90.2455 70.2151 91.1765 68.0818 92.4166C63.3628 95.1598 59.5979 99.2833 57.2943 104.232C54.9907 109.18 54.2591 114.716 55.198 120.093C56.1369 125.47 58.7012 130.43 62.5456 134.305C66.3899 138.18 71.3295 140.783 76.6988 141.765C82.0682 142.746 87.6095 142.059 92.576 139.794C97.5426 137.53 101.696 133.798 104.476 129.101C105.733 126.977 106.682 124.703 107.308 122.345C108.568 117.594 112.101 113.229 117.002 112.865V112.865Z" fill="#171717"/>
<path d="M30 9C30 4.02944 34.0294 0 39 0H81V0C81 9.94113 72.9411 18 63 18H39C34.0294 18 30 13.9706 30 9V9Z" fill="#171717"/>
<circle cx="119.5" cy="96.5" r="11.5" fill="#D2042D"/>
</svg>
